<?xml version="1.0" encoding="utf-8"?>
<!-- Generator: Adobe Illustrator 21.0.0, SVG Export Plug-In . SVG Version: 6.00 Build 0)  -->
<svg version="1.1" id="atlana_logo" xmlns="http://www.w3.org/2000/svg" xmlns:xlink="http://www.w3.org/1999/xlink" x="0px" y="0px"
	 viewBox="0 0 1626 281" enable-background="new 0 0 1626 281" xml:space="preserve">
<path fill="#ED1C24" d="M1074.9,195.8c-4.6-4.7-11.9-7.2-21.7-7.2c-9.5,0-16.8,2.4-21.5,7.1c-4.7,4.7-7.1,11.9-7.1,21.5
	c0,9.8,2.4,17.1,7.2,21.7c4.7,4.6,11.9,6.9,21.4,6.9c9.8,0,17-2.3,21.6-6.9c4.6-4.6,6.9-11.9,6.9-21.6
	C1081.8,207.7,1079.5,200.5,1074.9,195.8z"/>
<g>
	<path fill="#0071BC" d="M141.1,56.8c-14.2-6.8-28.8-10-43.7-9.5C80,47.9,63.9,52.5,49.5,60.8C35,69.2,23.1,80.9,13.9,95.6
		C4.7,110.5,0,127.7,0,146.8c0,19.1,4.7,36.3,13.9,51.2c9.2,14.8,21.1,26.4,35.6,34.7c14.4,8.2,30.6,12.7,47.9,13.3c1,0,2,0.1,3,0.1
		c13.8,0,27.4-3.2,40.6-9.6v9.3h57.1V47.5h-57.1V56.8z M137.5,129.1c2.2,4.8,3.4,10.1,3.6,15.8v3.6c-0.2,5.7-1.4,11-3.6,15.8
		c-2.2,4.9-5.3,9.2-9.1,12.8c-3.9,3.7-8.3,6.5-13.3,8.6c-5,2-10.4,3-16,3c-5.9,0-11.5-1.1-16.5-3.2c-5.1-2.1-9.5-5.1-13.2-9
		c-3.8-3.9-6.8-8.4-9.1-13.4c-2.2-4.9-3.3-10.4-3.3-16.2c0-5.9,1.1-11.4,3.3-16.4c2.2-5.1,5.3-9.7,9.1-13.6c3.7-3.8,8.2-6.8,13.2-9
		c5.1-2.1,10.6-3.2,16.5-3.2c5.7,0,11.1,1,16,3c5,2,9.5,4.9,13.3,8.6C132.2,119.9,135.2,124.2,137.5,129.1z"/>
	<path fill="#0071BC" d="M290.5,185.4c-5.1-2.1-9.5-5.1-13.2-9c-3.8-3.9-6.8-8.4-9.1-13.4c-2.2-4.9-3.3-10.4-3.3-16.2v-42.1H312
		V47.5h-47.1V0.3h-57.1v146.4c0,13.6,2.6,26.6,7.8,38.5c5.1,11.9,12.3,22.5,21.2,31.5c9,9,19.6,16.1,31.6,21.2
		c12.1,5.1,25.1,7.7,38.7,7.7h20.7v-57.2H307C301.1,188.6,295.6,187.5,290.5,185.4z"/>
	<rect x="335.5" fill="#0071BC" width="57.1" height="245.7"/>
	<path fill="#0071BC" d="M542.9,56.8c-14.2-6.8-28.8-10-43.7-9.5c-17.4,0.6-33.5,5.1-47.9,13.5c-14.4,8.4-26.4,20.1-35.6,34.8
		c-9.2,14.9-13.9,32.1-13.9,51.2c0,19.1,4.7,36.3,13.9,51.2c9.2,14.8,21.1,26.4,35.6,34.7c14.4,8.2,30.6,12.7,47.9,13.3
		c1,0,2,0.1,3,0.1c13.8,0,27.4-3.2,40.6-9.6v9.3h57.1V47.5h-57.1V56.8z M539.3,129.1c2.2,4.8,3.4,10.1,3.6,15.8v3.6
		c-0.2,5.7-1.4,11-3.6,15.8c-2.2,4.9-5.3,9.2-9.1,12.8c-3.9,3.7-8.3,6.5-13.3,8.6c-5,2-10.4,3-16,3c-5.9,0-11.5-1.1-16.5-3.2
		c-5.1-2.1-9.5-5.1-13.2-9c-3.8-3.9-6.8-8.4-9.1-13.4c-2.2-4.9-3.3-10.4-3.3-16.2c0-5.9,1.1-11.4,3.3-16.4c2.3-5.1,5.3-9.7,9.1-13.6
		c3.7-3.8,8.2-6.8,13.2-9c5.1-2.1,10.6-3.2,16.5-3.2c5.7,0,11.1,1,16,3c5,2,9.5,4.9,13.3,8.6C533.9,119.9,537,124.2,539.3,129.1z"/>
	<path fill="#0071BC" d="M785.6,81.9c-7.3-8.5-16-15.6-25.7-21.2c-9.8-5.6-20.3-9.5-31.3-11.5c-11-2-22.4-2.1-33.8-0.4
		c-8.9,1.4-17.7,4.1-26.3,8.2v-9.4h-57.1v198.3h57.1V144.8c0.2-5.4,1.4-10.6,3.6-15.4c2.2-4.9,5.3-9.2,9-12.8
		c3.8-3.7,8.2-6.6,13.2-8.7c4.9-2.1,10.3-3.2,16-3.2c5.9,0,11.4,1.1,16.4,3.3c5.1,2.3,9.7,5.3,13.6,9.1c3.8,3.7,6.8,8.2,8.9,13.4
		c2.1,5.2,3.2,10.7,3.2,16.4v99h57.1v-99.3c0-12.6-2.2-24.6-6.5-35.5C798.7,100.1,792.8,90.3,785.6,81.9z"/>
	<path fill="#0071BC" d="M959,56.8c-14.2-6.8-28.8-10-43.7-9.5c-17.4,0.6-33.5,5.1-47.9,13.5C853,69.2,841,80.9,831.8,95.6
		c-9.2,14.9-13.9,32.1-13.9,51.2c0,19.1,4.7,36.3,13.9,51.2c9.2,14.8,21.1,26.4,35.6,34.7c14.4,8.2,30.6,12.7,47.9,13.3
		c1,0,2,0.1,3,0.1c13.8,0,27.4-3.2,40.6-9.6v9.3h57.1V47.5H959V56.8z M955.4,129.1c2.2,4.8,3.4,10.1,3.6,15.8v3.6
		c-0.2,5.7-1.4,11-3.6,15.8c-2.2,4.9-5.3,9.2-9.1,12.8c-3.9,3.7-8.3,6.5-13.3,8.6c-5,2-10.4,3-16,3c-5.9,0-11.5-1.1-16.5-3.2
		c-5.1-2.1-9.5-5.1-13.2-9c-3.8-3.9-6.8-8.4-9.1-13.4c-2.2-4.9-3.3-10.4-3.3-16.2c0-5.9,1.1-11.4,3.3-16.4c2.2-5.1,5.3-9.7,9.1-13.6
		c3.7-3.8,8.2-6.8,13.2-9c5.1-2.1,10.6-3.2,16.5-3.2c5.7,0,11.1,1,16,3c5,2,9.5,4.9,13.3,8.6C950.1,119.9,953.2,124.2,955.4,129.1z"
		/>
	<path fill="#0071BC" d="M1256.8,76.1c-8.9-8.9-19.6-16.1-31.6-21.2c-12.1-5.1-25.1-7.7-38.7-7.7c-13.6,0-26.6,2.6-38.7,7.7
		c-12,5.1-22.7,12.3-31.6,21.2c-9,9-16.1,19.5-21.2,31.5c-5.1,12-7.8,24.9-7.8,38.5v132.8h57.1v-42.8c8.7,4.2,17.6,6.9,26.6,8.2
		c11.5,1.7,22.9,1.5,33.9-0.5c11-2,21.5-5.9,31.3-11.5c9.8-5.6,18.4-12.8,25.7-21.2c7.3-8.5,13.1-18.3,17.4-29.3
		c4.3-11,6.5-23,6.5-35.6c0-13.6-2.6-26.6-7.8-38.5C1272.9,95.6,1265.7,85.1,1256.8,76.1z M1228.6,146.1c0,5.9-1.1,11.4-3.3,16.4
		c-2.2,5.1-5.3,9.6-9,13.3c-3.7,3.7-8.3,6.8-13.5,9c-5.1,2.2-10.6,3.3-16.3,3.3c-5.9,0-11.4-1.1-16.4-3.3c-5.1-2.2-9.6-5.3-13.3-9
		c-3.8-3.7-6.8-8.2-9-13.3c-2.2-5-3.3-10.5-3.3-16.4c0-5.7,1.1-11.1,3.3-16.1c2.3-5.1,5.3-9.7,9.1-13.6c3.7-3.8,8.2-6.8,13.2-9
		c5-2.1,10.6-3.2,16.5-3.2c5.7,0,11.2,1.1,16.4,3.2c5.1,2.1,9.6,5.1,13.4,8.9c3.8,3.9,6.8,8.4,9.1,13.6
		C1227.5,135,1228.6,140.5,1228.6,146.1z"/>
	<path fill="#0071BC" d="M1364.6,54.5c-5.7,1.6-11.1,3.6-16.4,6.1V46.5h-56.5v199.3h57.2v-95.5c0-5.7,1.1-11.2,3.3-16.3
		c2.2-5.2,5.3-9.7,9-13.5c3.7-3.7,8.2-6.8,13.3-9c5-2.2,10.6-3.3,16.4-3.3h31V50.9h-31C1382,50.9,1373.1,52.1,1364.6,54.5z"/>
	<path fill="#0071BC" d="M1615.9,106.7c-5.4-12-12.8-22.6-22-31.3c-9.2-8.7-19.8-15.6-31.6-20.6c-11.8-5-24.4-7.6-37.3-7.6
		c-13.6,0-26.6,2.7-38.6,7.9c-11.9,5.2-22.5,12.4-31.4,21.4c-9,9-16.1,19.5-21.2,31.5c-5.1,12-7.8,24.9-7.8,38.5
		c0,14.3,2.7,27.7,8.1,39.8c5.4,12.1,12.8,22.6,22,31.3c9.1,8.7,19.8,15.6,31.6,20.6c11.8,5,24.4,7.6,37.3,7.6
		c13.6,0,26.6-2.6,38.5-7.8c11.9-5.1,22.5-12.3,31.5-21.2c9-8.9,16.1-19.6,21.2-31.6c5.1-12.1,7.7-25.1,7.7-38.7
		C1624,132.1,1621.3,118.8,1615.9,106.7z M1566.8,146.4c0,5.9-1.1,11.5-3.2,16.5c-2.1,5-5.1,9.5-9,13.2c-3.9,3.8-8.4,6.8-13.6,9.1
		c-5,2.2-10.4,3.3-16.1,3.3c-5.9,0-11.4-1.1-16.4-3.3c-5.1-2.2-9.6-5.3-13.3-9c-3.8-3.7-6.8-8.2-9-13.3c-2.2-5-3.3-10.5-3.3-16.4
		c0-5.7,1.1-11.2,3.4-16.3c2.2-5.2,5.3-9.7,9-13.5c3.7-3.7,8.2-6.8,13.3-9c5-2.2,10.6-3.3,16.4-3.3c5.6,0,11.1,1.1,16.1,3.3
		c5.1,2.3,9.7,5.3,13.6,9.1c3.8,3.7,6.8,8.2,8.9,13.4C1565.8,135.2,1566.8,140.8,1566.8,146.4z"/>
</g>
</svg>
